<svg id="图层_1" data-name="图层 1" xmlns="http://www.w3.org/2000/svg" xmlns:xlink="http://www.w3.org/1999/xlink" viewBox="0 0 502.68 400.13"><defs><style>.cls-1{fill:none;}.cls-2{fill:#1d7074;}.cls-3{clip-path:url(#clip-path);}.cls-4{fill:#ff6d00;}</style><clipPath id="clip-path" transform="translate(-421.16 -183.44)"><rect class="cls-1" width="1366" height="768"/></clipPath></defs><title>Rrocky第一版無background</title><polygon class="cls-2" points="151.43 274.06 250.65 274.06 336.81 360.22 472.94 400.13 270.79 400.13 151.43 274.06"/><g class="cls-3"><path class="cls-2" d="M575.58,227c39.3,2,242.55-36.76,244.67,64.15,1.5,70.87-.51,77.32-.51,77.32s-3.22,56.21-92.36,56.21H572.59V356.79l136.79-.31s40.75,1.8,43.74-16.1a105.4,105.4,0,0,0-.07-34c-5.38-31.57-179.51-8.81-177.47-15.27Z" transform="translate(-421.16 -183.44)"/><polygon class="cls-2" points="56.69 162.16 127.56 162.16 127.56 305.73 56.69 385.21 56.69 162.16"/><path class="cls-2" d="M548.72,198.64V319.49H477.85V241.91l-56.69-43.27Z" transform="translate(-421.16 -183.44)"/><polygon class="cls-4" points="181.17 258.85 280.38 258.85 366.54 345.01 502.68 384.92 300.52 384.92 181.17 258.85"/><path class="cls-4" d="M605.31,211.78c39.31,2,242.55-36.75,244.68,64.16,1.49,70.87-.51,77.32-.51,77.32s-3.22,56.21-92.36,56.21H602.33V341.58l136.78-.31s40.76,1.81,43.74-16.1a105.18,105.18,0,0,0-.06-34c-5.38-31.57-179.52-8.81-177.48-15.27Z" transform="translate(-421.16 -183.44)"/><polygon class="cls-4" points="86.43 146.96 157.3 146.96 157.3 290.52 86.43 370 86.43 146.96"/><path class="cls-4" d="M578.46,183.44V304.28H507.59V226.7L450.9,183.44Z" transform="translate(-421.16 -183.44)"/></g></svg>