<svg id="图层_1" data-name="图层 1" xmlns="http://www.w3.org/2000/svg" xmlns:xlink="http://www.w3.org/1999/xlink" viewBox="0 0 472.95 384.92"><defs><style>.cls-1{fill:none;}.cls-2{clip-path:url(#clip-path);}.cls-3{fill:#ff6d00;}</style><clipPath id="clip-path" transform="translate(-450.9 -183.44)"><rect class="cls-1" width="1366" height="768"/></clipPath></defs><title>RocoLogo-no-white</title><g class="cls-2"><polygon class="cls-3" points="151.43 258.85 250.65 258.85 336.81 345.01 472.95 384.92 270.79 384.92 151.43 258.85"/><path class="cls-3" d="M605.31,211.78c39.31,2,242.55-36.75,244.68,64.16,1.49,70.87-.51,77.32-.51,77.32s-3.22,56.21-92.36,56.21H602.33V341.58l136.78-.31s40.76,1.81,43.74-16.1a105.18,105.18,0,0,0-.06-34c-5.38-31.57-179.52-8.81-177.48-15.27Z" transform="translate(-450.9 -183.44)"/><polygon class="cls-3" points="56.69 146.96 127.56 146.96 127.56 290.52 56.69 370 56.69 146.96"/><path class="cls-3" d="M578.46,183.44V304.28H507.59V226.7L450.9,183.44Z" transform="translate(-450.9 -183.44)"/></g></svg>